<svg width="18" height="16" viewBox="0 0 18 16" fill="none" xmlns="http://www.w3.org/2000/svg">
<g filter="url(#filter0_iii_2204_25237)">
<path d="M8.90721 5.00043C8.80008 5.38772 8.43521 5.67672 8.00418 5.87679C6.7823 6.26876 5.81752 6.64668 5.01847 7.0129C4.31143 7.33759 4.31899 8.36313 5.02792 8.68314C5.85659 9.05697 6.89699 9.41558 8.05271 9.84148C8.36338 9.95556 8.8026 10.2785 8.91162 10.6757C9.26427 11.9371 9.6984 13.1776 10.2116 14.3906C10.603 15.319 11.5715 15.3179 11.9654 14.3906C12.4758 13.186 12.8646 11.8855 13.3026 10.6482C13.3558 10.4605 13.4581 10.2878 13.6003 10.1455C13.7425 10.0031 13.9203 9.8955 14.118 9.83212C15.1239 9.49752 16.1162 9.1289 17.093 8.72701C17.887 8.40233 17.9034 7.34871 17.1195 7.00354C16.1375 6.56879 15.1342 6.1766 14.113 5.82824C13.9136 5.76213 13.7335 5.65379 13.587 5.51183C13.4406 5.36987 13.3317 5.19818 13.2692 5.01038C12.7941 3.65898 12.4928 2.51234 11.9874 1.32241C11.5936 0.394567 10.5608 0.423233 10.1663 1.35049C9.6634 2.53691 9.3124 3.7169 8.90721 5.00043Z" fill="white"/>
</g>
<path d="M8.90721 5.00043C8.80008 5.38772 8.43521 5.67672 8.00418 5.87679C6.7823 6.26876 5.81752 6.64668 5.01847 7.0129C4.31143 7.33759 4.31899 8.36313 5.02792 8.68314C5.85659 9.05697 6.89699 9.41558 8.05271 9.84148C8.36338 9.95556 8.8026 10.2785 8.91162 10.6757C9.26427 11.9371 9.6984 13.1776 10.2116 14.3906C10.603 15.319 11.5715 15.3179 11.9654 14.3906C12.4758 13.186 12.8646 11.8855 13.3026 10.6482C13.3558 10.4605 13.4581 10.2878 13.6003 10.1455C13.7425 10.0031 13.9203 9.8955 14.118 9.83212C15.1239 9.49752 16.1162 9.1289 17.093 8.72701C17.887 8.40233 17.9034 7.34871 17.1195 7.00354C16.1375 6.56879 15.1342 6.1766 14.113 5.82824C13.9136 5.76213 13.7335 5.65379 13.587 5.51183C13.4406 5.36987 13.3317 5.19818 13.2692 5.01038C12.7941 3.65898 12.4928 2.51234 11.9874 1.32241C11.5936 0.394567 10.5608 0.423233 10.1663 1.35049C9.6634 2.53691 9.3124 3.7169 8.90721 5.00043Z" fill="white"/>
<g filter="url(#filter1_ii_2204_25237)">
<path d="M3.83508 1.90323C3.80043 2.02784 3.68322 2.12085 3.54458 2.18521C3.15136 2.31157 2.84069 2.43326 2.58358 2.55143C2.35609 2.65556 2.35798 2.98551 2.58673 3.08848C2.85329 3.20899 3.18791 3.32424 3.5597 3.46114C3.66053 3.49799 3.80106 3.60213 3.83697 3.73025C3.94473 4.12397 4.09219 4.5405 4.25477 4.92544C4.38081 5.22439 4.69274 5.2238 4.8194 4.92544C4.98324 4.53816 5.10927 4.11929 5.2498 3.72089C5.26696 3.66042 5.29992 3.60482 5.34575 3.559C5.39159 3.51318 5.44889 3.47856 5.51258 3.45821C5.83641 3.35071 6.15591 3.23226 6.47042 3.1031C6.52783 3.07929 6.5767 3.04074 6.61127 2.99198C6.64584 2.94323 6.66467 2.88631 6.66553 2.82794C6.66639 2.76958 6.64925 2.7122 6.61613 2.66258C6.58302 2.61297 6.5353 2.57318 6.47862 2.54792C6.20891 2.42975 5.87366 2.29227 5.51069 2.17C5.44649 2.14872 5.38853 2.11386 5.34138 2.06816C5.29424 2.02246 5.25921 1.96719 5.23909 1.90674C5.08596 1.47148 4.98891 1.10292 4.82633 0.719145C4.7003 0.420785 4.36694 0.430145 4.24028 0.728506C4.07833 1.11052 3.96553 1.4902 3.83508 1.90323Z" fill="white"/>
</g>
<path d="M3.83508 1.90323C3.80043 2.02784 3.68322 2.12085 3.54458 2.18521C3.15136 2.31157 2.84069 2.43326 2.58358 2.55143C2.35609 2.65556 2.35798 2.98551 2.58673 3.08848C2.85329 3.20899 3.18791 3.32424 3.5597 3.46114C3.66053 3.49799 3.80106 3.60213 3.83697 3.73025C3.94473 4.12397 4.09219 4.5405 4.25477 4.92544C4.38081 5.22439 4.69274 5.2238 4.8194 4.92544C4.98324 4.53816 5.10927 4.11929 5.2498 3.72089C5.26696 3.66042 5.29992 3.60482 5.34575 3.559C5.39159 3.51318 5.44889 3.47856 5.51258 3.45821C5.83641 3.35071 6.15591 3.23226 6.47042 3.1031C6.52783 3.07929 6.5767 3.04074 6.61127 2.99198C6.64584 2.94323 6.66467 2.88631 6.66553 2.82794C6.66639 2.76958 6.64925 2.7122 6.61613 2.66258C6.58302 2.61297 6.5353 2.57318 6.47862 2.54792C6.20891 2.42975 5.87366 2.29227 5.51069 2.17C5.44649 2.14872 5.38853 2.11386 5.34138 2.06816C5.29424 2.02246 5.25921 1.96719 5.23909 1.90674C5.08596 1.47148 4.98891 1.10292 4.82633 0.719145C4.7003 0.420785 4.36694 0.430145 4.24028 0.728506C4.07833 1.11052 3.96553 1.4902 3.83508 1.90323Z" fill="white"/>
<g filter="url(#filter2_i_2204_25237)">
<path d="M2.23155 10.2381C2.18366 10.4118 2.01982 10.5411 1.82636 10.6312C1.27812 10.8067 0.844567 10.9764 0.486004 11.1413C0.169033 11.287 0.172183 11.7468 0.490416 11.8902C0.862212 12.0587 1.32916 12.2195 1.84779 12.4108C1.98768 12.4617 2.18429 12.6068 2.23345 12.7853C2.38468 13.334 2.59012 13.9155 2.81698 14.4526C2.99279 14.8691 3.4276 14.8685 3.60405 14.4526C3.83343 13.912 4.00735 13.3282 4.20396 12.7724C4.22786 12.6881 4.27376 12.6106 4.33763 12.5467C4.40149 12.4828 4.48133 12.4346 4.57009 12.4062C5.02176 12.2562 5.46738 12.0909 5.90603 11.9106C5.98588 11.8773 6.05381 11.8235 6.10185 11.7555C6.14989 11.6876 6.17604 11.6083 6.17723 11.527C6.17842 11.4457 6.1546 11.3658 6.10857 11.2967C6.06254 11.2275 5.99621 11.172 5.91738 11.1367C5.47668 10.9417 5.02647 10.7658 4.5682 10.6096C4.47864 10.5799 4.39777 10.5312 4.33202 10.4675C4.26628 10.4037 4.21747 10.3265 4.18947 10.2422C3.97585 9.6355 3.84099 9.12127 3.61413 8.58656C3.43769 8.17119 2.97326 8.18348 2.79681 8.60001C2.57121 9.13238 2.41304 9.66183 2.23155 10.2381Z" fill="white"/>
</g>
<defs>
<filter id="filter0_iii_2204_25237" x="4.09219" y="0.390625" width="13.8531" height="14.9458" filterUnits="userSpaceOnUse" color-interpolation-filters="sRGB">
<feFlood flood-opacity="0" result="BackgroundImageFix"/>
<feBlend mode="normal" in="SourceGraphic" in2="BackgroundImageFix" result="shape"/>
<feColorMatrix in="SourceAlpha" type="matrix" values="0 0 0 0 0 0 0 0 0 0 0 0 0 0 0 0 0 0 127 0" result="hardAlpha"/>
<feOffset dx="0.25" dy="-0.25"/>
<feGaussianBlur stdDeviation="0.25"/>
<feComposite in2="hardAlpha" operator="arithmetic" k2="-1" k3="1"/>
<feColorMatrix type="matrix" values="0 0 0 0 0.937255 0 0 0 0 0.482353 0 0 0 0 0.329412 0 0 0 1 0"/>
<feBlend mode="normal" in2="shape" result="effect1_innerShadow_2204_25237"/>
<feColorMatrix in="SourceAlpha" type="matrix" values="0 0 0 0 0 0 0 0 0 0 0 0 0 0 0 0 0 0 127 0" result="hardAlpha"/>
<feOffset dx="0.25" dy="0.25"/>
<feGaussianBlur stdDeviation="0.5"/>
<feComposite in2="hardAlpha" operator="arithmetic" k2="-1" k3="1"/>
<feColorMatrix type="matrix" values="0 0 0 0 0.737255 0 0 0 0 0.615686 0 0 0 0 0.415686 0 0 0 1 0"/>
<feBlend mode="normal" in2="effect1_innerShadow_2204_25237" result="effect2_innerShadow_2204_25237"/>
<feColorMatrix in="SourceAlpha" type="matrix" values="0 0 0 0 0 0 0 0 0 0 0 0 0 0 0 0 0 0 127 0" result="hardAlpha"/>
<feOffset dx="-0.4" dy="0.25"/>
<feGaussianBlur stdDeviation="0.2"/>
<feComposite in2="hardAlpha" operator="arithmetic" k2="-1" k3="1"/>
<feColorMatrix type="matrix" values="0 0 0 0 1 0 0 0 0 0.901961 0 0 0 0 0.458824 0 0 0 1 0"/>
<feBlend mode="normal" in2="effect2_innerShadow_2204_25237" result="effect3_innerShadow_2204_25237"/>
</filter>
<filter id="filter1_ii_2204_25237" x="2.31406" y="0.5" width="4.45" height="4.74941" filterUnits="userSpaceOnUse" color-interpolation-filters="sRGB">
<feFlood flood-opacity="0" result="BackgroundImageFix"/>
<feBlend mode="normal" in="SourceGraphic" in2="BackgroundImageFix" result="shape"/>
<feColorMatrix in="SourceAlpha" type="matrix" values="0 0 0 0 0 0 0 0 0 0 0 0 0 0 0 0 0 0 127 0" result="hardAlpha"/>
<feOffset dx="0.1" dy="0.1"/>
<feGaussianBlur stdDeviation="0.1"/>
<feComposite in2="hardAlpha" operator="arithmetic" k2="-1" k3="1"/>
<feColorMatrix type="matrix" values="0 0 0 0 0.803922 0 0 0 0 0.6 0 0 0 0 0.262745 0 0 0 1 0"/>
<feBlend mode="normal" in2="shape" result="effect1_innerShadow_2204_25237"/>
<feColorMatrix in="SourceAlpha" type="matrix" values="0 0 0 0 0 0 0 0 0 0 0 0 0 0 0 0 0 0 127 0" result="hardAlpha"/>
<feOffset dx="-0.1" dy="0.1"/>
<feGaussianBlur stdDeviation="0.1"/>
<feComposite in2="hardAlpha" operator="arithmetic" k2="-1" k3="1"/>
<feColorMatrix type="matrix" values="0 0 0 0 1 0 0 0 0 0.882353 0 0 0 0 0.423529 0 0 0 1 0"/>
<feBlend mode="normal" in2="effect1_innerShadow_2204_25237" result="effect2_innerShadow_2204_25237"/>
</filter>
<filter id="filter2_i_2204_25237" x="0.25" y="8.13125" width="6.07969" height="6.6334" filterUnits="userSpaceOnUse" color-interpolation-filters="sRGB">
<feFlood flood-opacity="0" result="BackgroundImageFix"/>
<feBlend mode="normal" in="SourceGraphic" in2="BackgroundImageFix" result="shape"/>
<feColorMatrix in="SourceAlpha" type="matrix" values="0 0 0 0 0 0 0 0 0 0 0 0 0 0 0 0 0 0 127 0" result="hardAlpha"/>
<feOffset dx="0.15" dy="-0.15"/>
<feGaussianBlur stdDeviation="0.15"/>
<feComposite in2="hardAlpha" operator="arithmetic" k2="-1" k3="1"/>
<feColorMatrix type="matrix" values="0 0 0 0 1 0 0 0 0 0.458824 0 0 0 0 0.462745 0 0 0 1 0"/>
<feBlend mode="normal" in2="shape" result="effect1_innerShadow_2204_25237"/>
</filter>
</defs>
</svg>
